# xmcd
#
# Track frame offsets: 
#        182
#        22532
#        41277
#        56352
#
# Disc length: 1036 seconds
#
# Revision: 0
# Processed by: cddbd v1.5.2PL0 Copyright (c) Steve Scherf et al.
# Submitted via: ExactAudioCopy v0.95b4
#
DISCID=1c040a04
DTITLE=Lisa Miller - Do That For You
DYEAR=1994
DGENRE=Country
TTITLE0=Big Small Town
TTITLE1=Do That For You
TTITLE2=Turn The Table
TTITLE3=As Far As Life Goes
EXTD=
EXTT0=
EXTT1=
EXTT2=
EXTT3=
PLAYORDER=
